<mxfile host="app.diagrams.net" agent="Mozilla/5.0 (Windows NT 10.0; Win64; x64) AppleWebKit/537.36 (KHTML, like Gecko) Chrome/132.0.0.0 Safari/537.36" version="26.0.10">
  <diagram id="kgpKYQtTHZ0yAKxKKP6v" name="Page-1">
    <mxGraphModel dx="2443" dy="820" grid="1" gridSize="10" guides="1" tooltips="1" connect="1" arrows="1" fold="1" page="1" pageScale="1" pageWidth="850" pageHeight="1100" math="0" shadow="0">
      <root>
        <mxCell id="0" />
        <mxCell id="1" parent="0" />
        <mxCell id="rOveLn-PnX80Q0rja2AU-1" value="Portfolio Committee" style="swimlane;whiteSpace=wrap;html=1;" vertex="1" parent="1">
          <mxGeometry x="-775" y="210" width="200" height="1100" as="geometry" />
        </mxCell>
        <mxCell id="rOveLn-PnX80Q0rja2AU-2" value="Product Management" style="swimlane;whiteSpace=wrap;html=1;" vertex="1" parent="1">
          <mxGeometry x="-575" y="210" width="200" height="1100" as="geometry" />
        </mxCell>
        <mxCell id="rOveLn-PnX80Q0rja2AU-3" value="Architecture" style="swimlane;whiteSpace=wrap;html=1;" vertex="1" parent="1">
          <mxGeometry x="-375" y="210" width="200" height="1100" as="geometry" />
        </mxCell>
        <mxCell id="rOveLn-PnX80Q0rja2AU-4" value="&lt;div&gt;Development&lt;/div&gt;" style="swimlane;whiteSpace=wrap;html=1;" vertex="1" parent="1">
          <mxGeometry x="-175" y="210" width="200" height="1100" as="geometry" />
        </mxCell>
        <mxCell id="rOveLn-PnX80Q0rja2AU-5" value="DevOps" style="swimlane;whiteSpace=wrap;html=1;" vertex="1" parent="1">
          <mxGeometry x="25" y="210" width="200" height="1100" as="geometry" />
        </mxCell>
        <mxCell id="rOveLn-PnX80Q0rja2AU-6" value="Portfolio Committee" style="swimlane;whiteSpace=wrap;html=1;" vertex="1" parent="1">
          <mxGeometry x="225" y="210" width="200" height="1100" as="geometry" />
        </mxCell>
      </root>
    </mxGraphModel>
  </diagram>
</mxfile>
